<svg version="1.1" id="Layer_1" xmlns="http://www.w3.org/2000/svg" xmlns:xlink="http://www.w3.org/1999/xlink" x="0px" y="0px"
	 width="100%" viewBox="0 0 1024 1024" enable-background="new 0 0 1024 1024" xml:space="preserve">
<path fill="#000000" opacity="1.000000" stroke="none" 
	d="
M462.158203,801.030273 
	C441.369812,795.693787 420.847656,790.709229 401.228790,782.565918 
	C354.558624,763.194153 315.293060,734.071838 283.912537,694.395203 
	C255.954041,659.045227 237.076660,619.333801 227.678741,575.308411 
	C221.398529,545.888245 219.310730,516.189026 222.396057,486.024048 
	C226.624741,444.680634 238.119995,405.774414 258.560181,369.633148 
	C278.232422,334.849731 303.760498,305.098938 335.750336,280.903381 
	C371.875214,253.580261 412.194489,235.796112 456.543610,227.250381 
	C484.779236,221.809570 513.255005,220.525208 541.980408,223.421249 
	C570.515015,226.298035 598.060120,232.731796 624.581116,243.610779 
	C645.621216,252.241501 665.344177,263.177856 683.890564,276.391113 
	C713.312500,297.352570 737.547180,323.230225 757.285339,353.306946 
	C781.117004,389.621460 796.759338,429.298004 801.995728,472.467682 
	C811.147217,547.914551 796.049133,617.960938 752.176697,680.779663 
	C725.288513,719.279541 690.748901,749.314758 649.157532,771.264099 
	C618.179810,787.612183 585.261047,797.632263 550.652954,802.385864 
	C546.632812,802.938049 542.936279,804.520203 539.247620,805.997009 
	C533.560852,808.273743 527.663757,809.096375 521.658569,809.037231 
	C509.795410,808.920471 498.040741,809.930786 486.341156,811.782837 
	C479.462555,812.871765 473.232056,811.173767 467.128326,807.951538 
	C464.131989,806.369751 464.365814,803.171143 462.158203,801.030273 
M737.559082,678.093079 
	C764.742371,641.543518 781.138489,600.652405 787.966003,555.627319 
	C792.560730,525.327271 791.813477,495.086670 787.272156,465.086090 
	C783.021301,437.004669 773.917053,410.181152 760.493713,384.941406 
	C727.732117,323.340057 679.291626,279.427216 614.129639,253.977844 
	C572.684204,237.791138 529.823486,232.292358 485.755402,236.522247 
	C445.861267,240.351486 408.383057,252.046265 373.436401,272.127472 
	C342.973724,289.632080 316.865479,311.967865 295.066711,339.339233 
	C265.225616,376.808807 245.816940,419.026276 238.696075,466.593781 
	C234.110580,497.224945 233.446182,527.880432 238.402924,558.574890 
	C243.766251,591.787048 254.227417,623.275635 271.111511,652.356201 
	C301.973938,705.512695 345.940796,744.146545 402.338165,768.582764 
	C429.106445,780.181152 457.012054,787.374756 486.116577,789.822083 
	C511.427002,791.950195 536.629150,791.532776 561.705750,787.070007 
	C590.276855,781.985352 617.365967,772.692200 643.052856,759.169678 
	C680.519653,739.445740 712.088684,712.886536 737.559082,678.093079 
z"/>
<path fill="#000000" opacity="1.000000" stroke="none" 
	d="
M357.207764,865.127197 
	C388.598206,846.448059 421.889404,833.713745 457.471619,827.320557 
	C524.556152,815.267334 588.732056,824.091492 649.587524,855.152893 
	C684.397949,872.920593 715.107910,896.170898 740.295654,926.120361 
	C754.118713,942.556702 766.297668,960.309082 775.125732,980.084961 
	C776.189575,982.468079 777.579834,984.814209 777.481079,987.554688 
	C771.653687,990.322144 767.342102,988.895813 763.274414,982.629211 
	C758.017639,974.530823 752.879395,966.354553 747.758057,958.169312 
	C737.513123,941.795044 724.507690,927.728455 710.624023,914.499329 
	C672.231262,877.916504 626.964355,853.823730 575.358459,841.999268 
	C543.643677,834.732422 511.499878,833.432861 479.075531,836.997375 
	C428.473816,842.560303 383.197510,861.533264 342.119446,890.901550 
	C315.301849,910.074463 293.110107,933.851501 275.530884,961.828186 
	C272.341583,966.903748 269.201202,972.010742 265.952240,977.047791 
	C265.150879,978.290222 264.150238,979.487366 263.002380,980.407227 
	C259.705017,983.049438 256.519623,982.008545 255.350174,977.975220 
	C254.420853,974.770386 255.085876,971.749023 256.458954,968.767578 
	C263.000305,954.563782 272.393311,942.232056 282.098755,930.162415 
	C303.098938,904.046875 328.714081,883.184204 357.207764,865.127197 
z"/>
<path fill="#000000" opacity="1.000000" stroke="none" 
	d="
M310.064392,926.083069 
	C329.149445,905.695801 351.108246,889.615234 375.071869,876.180359 
	C406.373596,858.631470 439.979004,847.544128 475.448700,843.052917 
	C531.118286,836.004150 584.735352,844.045044 635.326416,868.801880 
	C663.447998,882.563110 689.348145,899.938599 711.478455,922.238098 
	C731.161133,942.071289 747.428589,964.575256 759.536377,989.868958 
	C761.643311,994.270386 764.467285,998.849304 763.091858,1004.500671 
	C759.131104,1004.142883 758.726929,1001.070801 757.634094,998.891479 
	C749.410095,982.491028 740.299194,966.585815 729.186279,951.998596 
	C709.501038,926.158875 685.374512,905.156677 657.718994,888.149231 
	C627.587952,869.619385 595.159912,857.043457 560.343872,850.877808 
	C537.617249,846.853149 514.685547,846.645569 491.660736,847.879456 
	C456.337616,849.772278 423.241180,859.838623 391.502441,874.715271 
	C375.809814,882.070740 361.221436,891.452332 347.092529,901.564453 
	C321.953491,919.556519 301.891998,942.146118 284.991821,967.861755 
	C277.101776,979.867554 270.309479,992.392151 264.317932,1005.401001 
	C263.696594,1006.750000 263.112610,1008.179565 260.261322,1008.217957 
	C269.383209,976.097168 287.715149,950.097900 310.064392,926.083069 
z"/>
<path fill="#000000" opacity="1.000000" stroke="none" 
	d="
M468.920166,382.876099 
	C482.437683,373.407776 495.714233,364.219543 508.847595,354.830963 
	C511.687805,352.800629 513.805542,352.424286 516.805786,354.619293 
	C532.121399,365.824615 547.580078,376.834534 562.998291,387.899445 
	C564.530396,388.998962 566.030396,390.199829 566.048035,392.215942 
	C566.120483,400.496582 566.078308,408.778198 566.078308,416.802643 
	C564.328369,417.705597 563.385559,416.970093 562.419739,416.301697 
	C547.502380,405.977722 532.525940,395.737457 517.712280,385.266785 
	C514.627502,383.086395 512.477112,382.485657 509.024475,384.908478 
	C480.148468,405.171387 451.045441,425.110962 422.188354,445.400513 
	C417.324738,448.820099 412.603210,450.590393 406.584534,450.414490 
	C391.473450,449.972992 376.277252,451.159912 361.405853,447.289398 
	C357.682251,446.320312 353.997772,445.199982 350.853912,442.925751 
	C347.313538,440.364685 347.022095,437.107513 350.391327,434.740753 
	C355.983643,430.812347 362.500793,429.479340 369.230621,429.175873 
	C369.723663,429.153625 370.249573,429.860748 370.910950,430.337463 
	C369.064087,433.067657 366.065002,432.519592 363.742798,433.479614 
	C362.362213,434.050323 360.886871,434.410797 359.548859,435.060730 
	C358.069153,435.779510 356.345367,436.552368 356.499756,438.581635 
	C356.630890,440.305328 358.197571,440.965607 359.560028,441.556671 
	C365.275665,444.036133 371.412415,444.759216 377.489868,445.676392 
	C380.054108,446.063385 381.868408,444.291748 383.742645,442.971344 
	C412.050873,423.027649 440.336792,403.052307 468.920166,382.876099 
z"/>
<path fill="#000000" opacity="1.000000" stroke="none" 
	d="
M550.620544,478.913025 
	C566.123657,481.187683 575.869385,490.273193 578.547119,504.545898 
	C581.320618,519.329346 575.573303,530.015869 559.523987,539.188721 
	C563.633972,544.435303 567.992188,549.316406 572.802307,553.805847 
	C575.032898,555.887695 576.980774,558.105835 577.321289,561.314941 
	C577.696106,564.848145 576.985596,568.003052 573.875977,570.110535 
	C570.738464,572.236938 567.390991,572.552734 563.964172,570.728577 
	C561.585022,569.462158 559.533203,567.763672 557.764832,565.752197 
	C551.834290,559.006287 545.930176,552.237183 540.038025,545.457642 
	C537.405029,542.428101 527.344421,540.557312 523.896423,542.439392 
	C522.242188,543.342346 522.349426,544.852661 522.338745,546.336365 
	C522.302917,551.328979 522.351135,556.322754 522.266785,561.314331 
	C522.160645,567.598938 519.031128,571.218140 513.657837,571.426147 
	C507.760529,571.654358 503.501434,567.989685 502.789490,562.014526 
	C502.652283,560.862915 502.690063,559.687317 502.690002,558.522827 
	C502.688782,536.553345 502.667847,514.583740 502.710938,492.614319 
	C502.728027,483.899933 508.026001,478.671326 516.711365,478.698364 
	C527.862305,478.733093 539.013123,478.823029 550.620544,478.913025 
M558.334900,514.537292 
	C559.507996,504.333923 555.533020,498.604187 545.526550,497.710388 
	C538.945618,497.122589 532.237122,497.843079 525.592712,498.135712 
	C522.249268,498.282959 522.234985,500.824707 522.509888,503.263916 
	C523.109253,508.582672 523.192688,513.921204 522.628357,519.219727 
	C522.275635,522.531494 523.307678,523.818542 526.633667,523.750732 
	C532.461121,523.631958 538.298950,523.576233 544.121704,523.788330 
	C550.749329,524.029785 555.247192,521.120789 558.334900,514.537292 
z"/>
<path fill="#000000" opacity="1.000000" stroke="none" 
	d="
M257.187134,439.057556 
	C255.850662,444.455536 254.237747,449.403107 253.463394,454.478607 
	C252.740753,459.215149 249.604355,460.964020 245.485031,462.229706 
	C260.670837,386.191101 298.708862,324.446259 365.313751,283.932770 
	C462.429321,224.860641 561.617310,225.087067 659.338623,283.290649 
	C706.596741,311.437958 740.182739,352.752533 762.474243,402.999695 
	C770.957092,422.120880 776.828247,442.125916 780.671448,463.681793 
	C776.317139,461.799591 773.462219,460.331909 772.682190,456.286957 
	C764.486267,413.789429 745.634033,376.331329 718.122559,343.228851 
	C677.384399,294.211700 625.312744,263.600525 562.888184,251.816925 
	C510.673523,241.960617 459.126465,246.493103 410.078491,267.553009 
	C337.941406,298.526733 288.120209,351.222443 261.341644,425.287445 
	C259.759369,429.663757 258.621399,434.200714 257.187134,439.057556 
z"/>
<path fill="#000000" opacity="1.000000" stroke="none" 
	d="
M589.682739,597.353149 
	C561.477783,595.408997 533.711731,593.817200 505.893860,594.341675 
	C470.603668,595.007080 435.359528,596.833984 400.348694,601.503174 
	C369.170959,605.661072 338.230225,611.156006 308.041595,620.285828 
	C302.436188,621.980957 296.722504,623.317871 290.753693,624.901123 
	C291.002106,622.119324 292.779633,622.060913 294.024933,621.553711 
	C324.751709,609.038147 356.079407,598.453857 388.779266,592.341736 
	C413.299561,587.758484 437.927307,584.221802 462.862000,582.466370 
	C486.320801,580.814819 509.779449,580.093872 533.229187,580.926147 
	C558.143188,581.810608 582.983826,583.788696 607.743347,587.308167 
	C633.193970,590.925964 658.071228,596.675720 682.705627,603.726807 
	C699.691284,608.588501 716.115906,615.036682 732.337036,622.002380 
	C733.334778,622.430786 734.658447,622.609863 734.975769,624.107666 
	C733.901489,625.734436 732.560120,624.528687 731.519897,624.205383 
	C705.750000,616.194946 679.529602,609.988647 652.909546,605.738525 
	C632.074036,602.411987 611.072632,600.124939 589.682739,597.353149 
z"/>
<path fill="#000000" opacity="1.000000" stroke="none" 
	d="
M419.410645,384.137695 
	C414.537323,399.059845 405.539917,411.037964 396.067841,422.683502 
	C391.580444,428.200531 386.683807,433.384705 381.895813,438.806610 
	C377.409973,436.166290 375.012512,432.269440 372.105713,428.958771 
	C360.976501,416.283264 350.494904,403.105621 344.440796,387.105011 
	C335.717133,364.048981 347.986664,339.206482 370.844330,333.779999 
	C402.908997,326.167725 428.505951,354.994629 419.410645,384.137695 
M398.782135,358.772644 
	C397.722504,357.721344 396.750488,356.559814 395.589142,355.636444 
	C387.546112,349.241394 376.975739,348.874237 368.713348,354.643188 
	C361.575745,359.626740 358.270233,369.736145 361.125885,378.170929 
	C363.875427,386.292236 369.556580,391.299774 377.979370,392.628571 
	C387.027649,394.056030 394.510040,390.729736 399.551941,383.173065 
	C404.762207,375.364075 404.472076,367.220764 398.782135,358.772644 
z"/>
<path fill="#000000" opacity="1.000000" stroke="none" 
	d="
M632.359863,758.433472 
	C467.393158,835.478455 288.875916,739.207642 250.936386,586.618408 
	C254.928818,586.507751 257.464691,587.966919 258.627167,591.893066 
	C272.049133,637.224060 296.473816,675.841553 330.946533,707.926147 
	C361.267914,736.147034 396.483887,756.110657 436.294098,768.064575 
	C461.212128,775.546753 486.668213,779.634583 512.509521,779.418762 
	C550.277893,779.103455 586.721558,771.903503 621.510376,756.199280 
	C665.082031,736.530273 700.973999,707.728027 728.892700,669.119934 
	C745.972412,645.500916 759.473816,619.905579 767.347046,591.647949 
	C768.463989,587.639221 770.934265,586.620911 775.958374,586.089233 
	C752.530212,664.702881 705.196655,721.877441 632.359863,758.433472 
z"/>
<path fill="#000000" opacity="1.000000" stroke="none" 
	d="
M640.666443,548.150269 
	C649.106384,551.178284 650.308228,558.553406 643.321289,564.240234 
	C634.564697,571.367371 624.165222,573.521118 613.229126,572.006104 
	C597.793518,569.867859 585.137756,556.806274 582.913452,541.514099 
	C580.497681,524.905396 588.243530,509.084534 602.837463,502.528595 
	C624.965942,492.587860 650.580078,504.516083 651.280579,531.762878 
	C651.481750,539.587646 648.350464,542.835266 640.564453,542.843567 
	C629.917358,542.854980 619.270081,542.505981 608.622131,542.367004 
	C606.825684,542.343506 604.946838,542.004395 602.701294,543.372681 
	C603.558655,548.095703 606.145081,551.740356 610.731323,553.444153 
	C618.302673,556.257080 625.761169,555.917053 632.620972,551.132202 
	C634.949524,549.508057 637.162598,547.675354 640.666443,548.150269 
M610.656189,528.791199 
	C617.806030,528.560730 625.020447,529.395142 632.192017,528.172302 
	C630.655823,519.688965 625.318909,515.811584 616.692993,516.320557 
	C609.653076,516.735962 603.763916,522.029114 603.369629,528.353760 
	C605.429077,529.234985 607.606201,528.608765 610.656189,528.791199 
z"/>
<path fill="#000000" opacity="1.000000" stroke="none" 
	d="
M420.709869,535.994995 
	C420.850006,514.714783 435.736511,499.398468 455.937134,499.279053 
	C478.453979,499.145935 493.700836,514.066040 494.024872,536.550659 
	C494.303345,555.872620 478.150330,572.096619 458.446869,572.284912 
	C436.484406,572.494812 421.064240,557.857849 420.709869,535.994995 
M468.135101,521.324646 
	C457.601776,514.023743 446.438110,516.568542 441.418488,527.427368 
	C439.672302,531.204773 439.792999,535.210022 440.167786,539.205383 
	C440.860077,546.586121 446.149963,552.533813 453.417389,554.236328 
	C460.447937,555.883362 467.536926,552.899109 471.503601,546.622559 
	C476.428192,538.830261 475.358765,529.381287 468.135101,521.324646 
z"/>
<path fill="#000000" opacity="1.000000" stroke="none" 
	d="
M704.351807,526.102417 
	C700.370239,518.034973 695.218750,515.544434 687.135559,517.463013 
	C681.453857,518.811707 678.275024,523.633240 678.225159,531.329590 
	C678.160461,541.314026 678.308228,551.300171 678.212219,561.284058 
	C678.140747,568.714722 671.665405,573.601440 665.092285,571.307922 
	C660.850403,569.827759 658.673462,566.840881 658.688293,562.252380 
	C658.726501,550.436707 658.624634,538.620117 658.733826,526.805298 
	C658.784363,521.336792 660.694092,516.382935 663.878113,511.950684 
	C675.391602,495.923523 704.302979,494.488617 717.297485,509.306824 
	C722.012695,514.683838 723.988220,521.227417 724.188599,528.145630 
	C724.501587,538.954102 724.362732,549.778442 724.267395,560.594788 
	C724.203735,567.814331 720.472595,571.794434 714.238953,571.665344 
	C708.444275,571.545288 705.007019,567.472046 704.898804,560.418762 
	C704.725342,549.108887 704.625061,537.797791 704.351807,526.102417 
z"/>
<path fill="#000000" opacity="1.000000" stroke="none" 
	d="
M248.861588,553.805725 
	C248.872299,532.683044 248.871414,512.035461 248.888855,491.387909 
	C248.896027,482.914429 253.768860,477.381256 260.371002,478.297455 
	C266.280701,479.117554 269.225739,482.951447 269.245483,490.134949 
	C269.296722,508.784454 269.272919,527.434082 269.302368,546.083679 
	C269.312775,552.666626 269.343628,552.683044 275.874207,552.685181 
	C285.698486,552.688416 295.522797,552.640564 305.346985,552.663513 
	C311.735657,552.678406 315.805573,556.091614 315.931549,561.429321 
	C316.068420,567.226379 311.772278,571.265320 305.190857,571.294373 
	C292.203003,571.351685 279.214630,571.326233 266.226593,571.293823 
	C254.499176,571.264587 249.253571,566.100281 248.861588,553.805725 
z"/>
<path fill="#000000" opacity="1.000000" stroke="none" 
	d="
M408.818176,499.740173 
	C417.330414,502.063599 419.783081,506.230286 416.734467,513.793945 
	C410.449738,529.386292 403.868683,544.859680 397.344482,560.354553 
	C396.509430,562.337769 395.424469,564.250916 394.218903,566.036926 
	C388.521332,574.477661 377.233124,573.969299 372.763916,564.836914 
	C366.913971,552.882996 361.396454,540.764160 356.740082,528.272766 
	C354.822968,523.129883 352.518005,518.130676 350.634338,512.976562 
	C348.571747,507.332855 350.730377,502.302917 355.835754,500.161896 
	C360.701172,498.121460 365.620758,500.019287 367.950195,505.745209 
	C372.650574,517.299133 376.871338,529.048157 381.304230,540.711182 
	C381.873047,542.207825 382.049835,543.970032 384.359528,545.060242 
	C387.503571,536.979980 390.653992,528.997498 393.712738,520.980042 
	C395.610687,516.005127 397.268036,510.937164 399.222351,505.985565 
	C400.830200,501.911804 403.724792,499.434479 408.818176,499.740173 
z"/>
<path fill="#000000" opacity="1.000000" stroke="none" 
	d="
M733.609619,544.767090 
	C733.410522,527.164185 733.194458,510.033783 733.051147,492.902802 
	C733.033203,490.758087 733.147339,488.550598 733.637268,486.475342 
	C734.862732,481.283325 738.546631,478.432251 743.191467,478.757935 
	C748.163635,479.106628 751.702515,482.527283 752.215088,487.772675 
	C752.473083,490.413025 752.412842,493.093842 752.354980,495.753235 
	C752.290222,498.728638 753.703491,499.961456 756.599426,499.939270 
	C759.259216,499.918884 761.931824,499.961029 764.578552,500.199921 
	C769.676270,500.660156 773.060425,504.230194 773.075684,508.954041 
	C773.090332,513.480164 770.016968,516.734924 765.005554,517.425598 
	C763.361145,517.652222 761.698792,517.862976 760.043274,517.873840 
	C753.032288,517.919861 753.041077,517.891235 753.110168,525.098572 
	C753.166016,530.921753 753.142090,536.746216 753.252380,542.568237 
	C753.391541,549.911072 756.343079,552.893616 763.640808,552.711731 
	C768.281067,552.596069 771.737854,553.816956 773.432861,558.561523 
	C775.261841,563.681458 773.516541,567.805969 768.420837,569.779114 
	C757.920105,573.845215 743.027161,568.400940 737.686279,558.481323 
	C735.461975,554.350159 733.858765,549.995422 733.609619,544.767090 
z"/>
<path fill="#000000" opacity="1.000000" stroke="none" 
	d="
M586.943359,434.120544 
	C582.801880,431.287903 578.975525,428.630920 575.107117,426.036652 
	C572.638367,424.380981 571.763916,422.290588 572.150574,419.235046 
	C573.516907,408.437195 571.786621,397.636780 571.884094,386.830658 
	C571.906067,384.401062 570.713867,383.261658 568.239441,383.096497 
	C565.657288,382.924133 562.894653,383.497528 560.531067,381.852417 
	C560.394470,379.319183 562.400757,378.267578 563.691833,376.933563 
	C569.592590,370.836609 575.643127,364.884796 581.630066,358.871033 
	C583.328613,357.164825 585.039368,356.142151 587.140442,358.320404 
	C593.839478,365.265594 600.567749,372.182709 607.250854,379.143127 
	C607.793579,379.708374 608.079285,380.520508 608.461731,381.178833 
	C607.232056,383.423950 605.231628,382.909546 603.515991,382.969635 
	C596.698425,383.208313 596.355957,383.505829 596.331970,390.541565 
	C596.283142,404.856354 596.267212,419.171265 596.238647,433.486145 
	C596.235352,435.125610 596.238159,436.765045 596.238159,438.609314 
	C592.059692,438.878082 590.055054,435.751495 586.943359,434.120544 
z"/>
<path fill="#000000" opacity="1.000000" stroke="none" 
	d="
M321.851654,558.751343 
	C321.837677,542.958313 321.805908,527.634827 321.833313,512.311462 
	C321.841492,507.756165 323.030060,503.621216 327.402130,501.349274 
	C330.499542,499.739685 333.702423,499.530426 336.877869,501.605225 
	C340.005798,503.648987 341.226593,506.640656 341.243622,510.090179 
	C341.328461,527.245667 341.351440,544.402161 341.259338,561.557617 
	C341.230042,567.017395 337.491241,571.006409 332.607086,571.333862 
	C326.411896,571.749084 323.332550,569.374573 322.182831,563.193848 
	C321.941071,561.894287 321.958496,560.546509 321.851654,558.751343 
z"/>
<path fill="#000000" opacity="1.000000" stroke="none" 
	d="
M647.825928,446.148987 
	C649.125854,447.160706 650.311890,447.827881 650.456604,449.339386 
	C648.808899,450.894226 646.894348,450.253693 645.172180,450.273468 
	C634.862793,450.391785 624.552185,450.396301 614.242249,450.475189 
	C607.444580,450.527222 602.712402,445.981110 602.698730,439.277832 
	C602.683228,431.693604 602.695129,424.109344 602.695129,416.525085 
	C603.142090,416.250549 603.589111,415.976013 604.036072,415.701477 
	C618.535400,425.778839 633.034668,435.856201 647.825928,446.148987 
z"/>
<path fill="#000000" opacity="1.000000" stroke="none" 
	d="
M340.021973,489.788666 
	C332.693848,495.713409 324.086975,493.963409 321.503571,486.378540 
	C319.871979,481.588318 321.203308,476.612701 324.871399,473.791748 
	C328.483124,471.014130 334.152740,470.882751 337.956055,473.488708 
	C341.632385,476.007599 343.368011,481.146851 342.009857,485.935303 
	C341.656097,487.182526 340.857727,488.303589 340.021973,489.788666 
z"/>
<path fill="#000000" opacity="1.000000" stroke="none" 
	d="
M557.246094,639.045715 
	C558.462280,641.678101 559.109436,643.958252 558.694702,646.582031 
	C557.604919,653.476257 553.707581,657.694336 547.717590,658.118225 
	C542.707092,658.472778 537.004395,654.370239 535.244080,649.144653 
	C533.555298,644.131653 535.900330,637.663635 540.455566,634.770020 
	C545.270264,631.711487 551.271057,632.617676 555.862854,637.125366 
	C556.330261,637.584167 556.671143,638.171936 557.246094,639.045715 
M551.702759,652.348450 
	C553.343689,651.039795 554.181641,649.249268 554.537415,647.258362 
	C555.187012,643.623230 553.820801,640.755859 550.860535,638.666809 
	C548.262329,636.833313 545.504578,636.883728 543.003052,638.735840 
	C540.103088,640.882812 538.950867,643.933777 539.646851,647.486328 
	C540.732544,653.027466 544.787842,654.856018 551.702759,652.348450 
z"/>
<path fill="#000000" opacity="1.000000" stroke="none" 
	d="
M662.908142,643.591064 
	C658.638428,643.807617 658.684143,646.686340 658.215393,649.590027 
	C657.795837,652.189392 660.154541,657.035583 656.307495,656.919189 
	C652.729919,656.810974 655.351807,651.934570 654.647766,649.275635 
	C654.441589,648.497253 654.648132,647.618774 654.571960,646.794800 
	C654.389771,644.822021 653.644226,642.987732 651.439453,642.978821 
	C649.283508,642.970093 648.326843,644.661072 648.228516,646.710388 
	C648.109253,649.195984 648.152588,651.691101 647.977844,654.171631 
	C647.887329,655.455566 647.782837,657.089478 646.043945,657.196899 
	C643.882446,657.330444 643.873840,655.527222 643.821960,654.049866 
	C643.734558,651.562988 643.740173,649.070923 643.777771,646.582092 
	C643.882751,639.623230 646.854675,637.308899 653.626526,639.318481 
	C655.948730,640.007568 657.830444,640.329102 660.235840,639.408752 
	C664.267944,637.866150 668.174866,640.075439 668.874084,644.342163 
	C669.430786,647.739197 669.160217,651.281250 669.141174,654.758240 
	C669.134460,655.990967 668.584534,657.080872 667.052429,656.971741 
	C665.605103,656.868530 665.114868,655.765808 665.035950,654.557190 
	C664.906250,652.572754 665.002075,650.573914 664.881348,648.588440 
	C664.774719,646.832764 665.258484,644.836609 662.908142,643.591064 
z"/>
<path fill="#000000" opacity="1.000000" stroke="none" 
	d="
M511.206696,444.071320 
	C510.676392,447.151367 512.715759,450.748627 509.591095,452.252167 
	C505.985107,453.987305 501.832001,453.459991 497.928711,452.579529 
	C496.463043,452.248901 495.967041,450.936127 495.958984,449.487946 
	C495.952576,448.331024 495.942413,447.174072 495.937988,446.017151 
	C495.903107,436.896973 495.942657,437.137177 504.910004,436.880096 
	C510.107086,436.731140 511.805237,438.838226 511.206696,444.071320 
z"/>
<path fill="#000000" opacity="1.000000" stroke="none" 
	d="
M529.680176,449.068481 
	C529.833618,451.832764 528.487061,452.779266 526.361389,452.884491 
	C524.201599,452.991486 522.032166,452.940033 519.876953,453.095703 
	C515.973999,453.377594 514.325989,451.568085 514.672180,447.756348 
	C514.702271,447.425903 514.687256,447.091034 514.686157,446.758209 
	C514.651550,436.374512 514.646729,436.481049 525.079956,436.937653 
	C528.801270,437.100525 530.144836,438.446655 529.524231,442.193481 
	C529.177979,444.284088 529.585388,446.499512 529.680176,449.068481 
z"/>
<path fill="#000000" opacity="1.000000" stroke="none" 
	d="
M600.800659,654.363525 
	C600.746277,648.614319 600.663269,643.295410 600.714905,637.977722 
	C600.731262,636.294373 600.041748,633.859497 602.789917,633.712463 
	C605.636597,633.560303 605.278564,636.069214 605.087708,637.708313 
	C604.508057,642.687683 606.747131,644.002075 611.400696,643.810425 
	C615.102112,643.658081 617.060608,642.796814 616.738831,638.708557 
	C616.610474,637.076538 616.035889,634.918518 618.439209,634.125122 
	C620.326111,634.478577 620.245300,635.957275 620.260376,637.241760 
	C620.322693,642.559692 620.362488,647.879150 620.291382,653.196472 
	C620.270935,654.728821 620.739502,656.963562 618.269226,657.005859 
	C615.741150,657.049133 616.111206,654.906616 616.294922,653.318970 
	C616.874695,648.309204 614.427124,647.143066 609.839844,647.219482 
	C605.038635,647.299438 605.093689,650.207397 604.956238,653.510315 
	C604.897095,654.931824 605.057556,656.814453 603.209839,657.242249 
	C601.501526,657.637695 600.972046,656.254761 600.800659,654.363525 
z"/>
<path fill="#000000" opacity="1.000000" stroke="none" 
	d="
M508.623352,418.892517 
	C511.063477,421.449921 512.077087,430.081970 510.349396,431.978424 
	C508.122345,434.422974 505.006897,433.154144 502.297913,433.262482 
	C500.165558,433.347748 496.702454,434.421265 496.361755,431.378876 
	C495.933411,427.553589 495.176788,423.358917 497.021637,419.671722 
	C497.831818,418.052490 500.065582,418.835266 501.676819,418.786560 
	C503.838562,418.721161 506.004791,418.803436 508.623352,418.892517 
z"/>
<path fill="#000000" opacity="1.000000" stroke="none" 
	d="
M485.151245,652.611450 
	C484.364319,649.444275 484.236267,646.660828 485.543793,643.980957 
	C487.263763,640.455994 490.239563,638.613770 494.001617,639.090698 
	C498.100464,639.610229 500.979584,642.196655 501.901123,646.357239 
	C502.601074,649.517517 501.204865,651.160278 497.828308,650.718140 
	C495.244446,650.379944 492.631287,649.772583 490.076324,651.646179 
	C492.813507,656.062256 497.071716,651.578796 500.194244,653.668945 
	C500.056580,656.990845 497.544586,657.737976 495.170837,658.047791 
	C490.842621,658.612854 487.330688,657.103943 485.151245,652.611450 
M490.063416,644.983826 
	C491.626770,648.295593 493.923248,646.304077 496.525055,646.150513 
	C494.793243,642.672302 492.802765,642.726990 490.063416,644.983826 
z"/>
<path fill="#000000" opacity="1.000000" stroke="none" 
	d="
M520.385010,433.420593 
	C515.891663,434.387909 514.415527,432.506592 514.776489,428.636200 
	C514.791931,428.471039 514.782837,428.303284 514.780945,428.136780 
	C514.673279,418.656128 517.266663,416.669342 526.708557,418.852020 
	C528.238892,419.205811 529.090332,419.920532 529.222656,421.447479 
	C529.308777,422.441284 529.328674,423.441803 529.351135,424.439941 
	C529.555725,433.531281 529.554016,433.531311 520.385010,433.420593 
z"/>
<path fill="#000000" opacity="1.000000" stroke="none" 
	d="
M685.423096,656.994629 
	C680.955994,658.823425 677.137451,658.373108 674.168579,654.934082 
	C671.266602,651.572693 671.054260,647.722900 673.069519,643.755188 
	C674.956848,640.039246 677.819214,638.299622 682.039062,639.266235 
	C686.386658,640.262024 688.318848,643.435059 689.041626,647.443298 
	C689.459595,649.760925 687.626465,650.171570 685.842773,650.204651 
	C682.928223,650.258789 680.012024,650.219299 676.369019,650.219299 
	C678.545532,654.871521 681.309631,653.753113 683.922180,652.998901 
	C685.127808,652.650879 686.272461,652.462463 687.039062,653.666626 
	C688.040527,655.239441 687.007446,656.109070 685.423096,656.994629 
M677.510193,644.465149 
	C678.647217,648.694458 681.161255,646.227417 683.697205,646.035461 
	C682.302551,642.556580 680.239014,643.028076 677.510193,644.465149 
z"/>
<path fill="#000000" opacity="1.000000" stroke="none" 
	d="
M433.317871,645.912476 
	C434.028473,652.603027 432.370392,655.788696 427.558716,657.463623 
	C423.460602,658.890137 420.021484,658.132324 417.525665,654.359680 
	C414.191803,649.320190 415.217194,643.195679 419.863495,640.379883 
	C424.706085,637.445251 430.140289,639.539734 433.317871,645.912476 
M429.306305,647.068115 
	C428.344604,644.498291 426.785309,642.836853 423.753601,643.426880 
	C421.519989,643.861511 420.333588,645.268250 420.133606,647.486267 
	C419.881927,650.278015 420.143646,653.071350 423.503479,653.635986 
	C427.873810,654.370483 429.246002,651.528137 429.306305,647.068115 
z"/>
<path fill="#000000" opacity="1.000000" stroke="none" 
	d="
M623.475342,646.644043 
	C625.793274,640.375610 629.541016,637.914246 634.339600,639.187317 
	C639.121704,640.456055 642.197571,645.812500 641.123718,651.001465 
	C640.231750,655.311584 635.997864,658.475220 631.583740,658.129822 
	C626.491333,657.731506 623.256653,653.347107 623.475342,646.644043 
M628.691956,645.217041 
	C627.661682,646.988403 626.845032,648.847717 627.875366,650.854370 
	C629.186462,653.407837 631.450623,654.626526 634.085144,653.453247 
	C637.582275,651.895813 637.523315,648.571716 636.209473,645.773621 
	C634.679688,642.515442 631.921692,642.559387 628.691956,645.217041 
z"/>
<path fill="#000000" opacity="1.000000" stroke="none" 
	d="
M349.612427,639.079346 
	C354.288208,640.265137 357.061676,642.831116 357.547272,647.379211 
	C357.924957,650.916565 356.906830,654.017761 353.936249,656.177185 
	C350.425873,658.729004 346.725525,658.732483 343.265869,656.196350 
	C339.748627,653.617920 339.042084,649.837708 340.160461,645.894470 
	C341.408203,641.495056 344.143768,638.598877 349.612427,639.079346 
M352.787628,650.544312 
	C353.689270,647.028198 353.238708,644.013367 349.070129,643.322510 
	C345.756073,642.773193 344.251526,645.006470 343.745514,647.971436 
	C343.326874,650.424438 344.392151,652.324524 346.577881,653.259216 
	C349.008667,654.298645 351.153748,653.654297 352.787628,650.544312 
z"/>
<path fill="#000000" opacity="1.000000" stroke="none" 
	d="
M503.318604,644.621460 
	C502.553680,642.656006 501.091400,640.528503 503.523132,639.621033 
	C505.633850,638.833313 506.447693,641.156189 507.360321,642.716858 
	C508.580750,644.803650 508.771851,647.493713 511.108521,649.178528 
	C514.325256,646.808228 513.670105,641.575317 517.655640,639.945984 
	C519.557251,640.891418 519.158264,642.230103 518.647400,643.462097 
	C516.360535,648.976624 514.136230,654.522400 511.647430,659.945923 
	C510.060883,663.403198 507.519775,664.730042 504.043243,662.579529 
	C504.020294,660.842102 504.873230,660.312012 505.818695,659.942261 
	C508.958252,658.714722 509.027039,656.531372 507.773376,653.899170 
	C506.350250,650.911072 504.932465,647.920410 503.318604,644.621460 
z"/>
<path fill="#000000" opacity="1.000000" stroke="none" 
	d="
M359.727356,643.298218 
	C359.942139,641.248413 360.371368,639.694458 362.398224,640.098450 
	C363.961578,640.410156 364.170929,641.912659 364.192108,643.280762 
	C364.225525,645.435608 364.185516,647.591431 364.187653,649.746887 
	C364.189819,651.923828 364.781616,653.914490 367.252380,654.126648 
	C369.881958,654.352295 371.177155,652.431824 371.494507,650.144104 
	C371.857147,647.529968 371.737946,644.852356 371.940979,642.210999 
	C372.020325,641.178467 372.599579,640.349976 374.497498,640.109253 
	C377.528412,645.508057 375.698334,651.209778 375.383148,657.132996 
	C372.465912,657.291687 369.920776,657.289185 367.381531,657.866089 
	C363.635498,658.717224 360.438171,655.939636 359.889954,651.698486 
	C359.552246,649.085571 359.744263,646.404236 359.727356,643.298218 
z"/>
<path fill="#000000" opacity="1.000000" stroke="none" 
	d="
M466.753723,650.794800 
	C466.749756,649.170471 466.746490,648.007996 466.742462,646.845459 
	C466.717682,639.688843 467.352417,639.057678 474.634308,638.999268 
	C479.514954,638.960144 482.218964,641.828918 482.337830,647.333435 
	C482.391479,649.819824 482.275513,652.313416 482.141541,654.798645 
	C482.086090,655.827576 481.657684,656.781921 480.404572,656.831665 
	C479.188904,656.879883 478.534210,656.017273 478.405548,655.004578 
	C478.134888,652.874084 478.052643,650.718506 477.922729,648.571472 
	C477.784637,646.289307 478.252686,643.489014 474.786713,643.450684 
	C471.316132,643.412231 471.108063,646.067932 470.957916,648.696716 
	C470.825714,651.011047 470.567535,653.322083 470.255432,655.619690 
	C470.176575,656.200378 469.679474,656.724243 469.296570,657.414856 
	C465.532379,656.370361 467.243378,653.360718 466.753723,650.794800 
z"/>
<path fill="#000000" opacity="1.000000" stroke="none" 
	d="
M564.342407,657.005371 
	C560.552490,652.257324 560.127930,643.375854 563.397522,640.089172 
	C565.989929,642.667725 565.068665,645.951050 565.266296,648.953369 
	C565.427490,651.401306 565.607117,653.833374 568.940796,653.699158 
	C571.988403,653.576416 572.673279,651.467773 572.721558,648.871887 
	C572.764709,646.550293 572.823425,644.221558 573.054504,641.913940 
	C573.172485,640.735168 573.766113,639.593933 575.246704,639.683472 
	C576.461975,639.757019 576.929688,640.761536 576.941101,641.783569 
	C576.989380,646.097168 577.040161,650.415344 576.888916,654.724854 
	C576.801086,657.225525 574.709778,657.071716 572.884155,657.439697 
	C570.092224,658.002380 567.376709,658.847656 564.342407,657.005371 
z"/>
<path fill="#000000" opacity="1.000000" stroke="none" 
	d="
M692.292236,652.751465 
	C694.809387,652.598694 697.013794,654.898804 699.168945,652.604980 
	C698.828491,649.563416 696.140747,650.666626 694.560608,649.913208 
	C691.842957,648.617310 690.396729,646.545776 690.997986,643.547424 
	C691.695557,640.068909 694.228638,638.501099 697.562561,638.847900 
	C700.118042,639.113708 703.099365,639.508057 703.462402,643.039246 
	C700.792603,644.854614 697.733887,641.438782 695.775940,644.642456 
	C696.983459,647.106140 699.787170,646.710754 701.616150,647.992676 
	C703.861206,649.566223 705.362915,651.433228 704.245789,654.247253 
	C702.850098,657.763123 699.783936,658.495911 696.454956,658.149231 
	C693.800964,657.872803 691.114563,657.244812 690.565308,653.938843 
	C690.430298,653.126221 691.294250,652.971558 692.292236,652.751465 
z"/>
<path fill="#000000" opacity="1.000000" stroke="none" 
	d="
M451.342987,646.126038 
	C451.339386,647.754944 451.331970,648.914734 451.331940,650.074585 
	C451.331573,657.746155 451.126648,657.953491 443.348297,658.132751 
	C438.696960,658.239929 436.325226,655.762085 435.890594,650.175537 
	C435.723907,648.032837 435.707977,645.870239 435.769104,643.720886 
	C435.809937,642.283325 435.674652,640.291992 437.642639,640.223206 
	C439.845032,640.146240 439.963501,642.242249 440.104034,643.862427 
	C440.261047,645.673218 440.188171,647.504395 440.204315,649.326782 
	C440.225220,651.686829 440.708801,653.752014 443.655579,653.730347 
	C446.397308,653.710205 447.321198,651.766357 447.561218,649.455566 
	C447.748810,647.649719 447.598633,645.811340 447.712189,643.994507 
	C447.808868,642.447449 447.398865,640.511841 449.956085,640.278992 
	C452.061462,641.640747 451.067505,643.823914 451.342987,646.126038 
z"/>
<path fill="#000000" opacity="1.000000" stroke="none" 
	d="
M339.052094,633.583252 
	C341.314392,634.102539 341.149231,635.376099 340.293732,636.628601 
	C336.200653,642.620483 331.285919,648.233398 331.720490,656.221069 
	C331.733002,656.450989 330.963379,656.723511 330.119324,657.250305 
	C327.063599,653.784790 329.953430,648.695251 326.618347,645.262573 
	C323.817505,642.379822 321.950989,638.589172 320.210449,634.640137 
	C325.920715,633.961914 326.433228,640.178284 330.321991,642.218262 
	C334.341522,640.623108 334.711517,635.262024 339.052094,633.583252 
z"/>
<path fill="#000000" opacity="1.000000" stroke="none" 
	d="
M408.937012,649.654053 
	C409.921631,645.315796 409.034241,641.351074 409.101776,637.393555 
	C409.130524,635.708618 409.186279,633.824951 411.574554,633.921021 
	C413.812256,634.011047 413.417847,635.860229 413.420349,637.286926 
	C413.427948,641.591064 413.525421,645.902832 413.305664,650.197205 
	C413.119690,653.831177 411.062775,656.327820 407.670837,657.675659 
	C404.751831,658.835449 402.128571,658.090393 399.759949,656.275024 
	C398.540344,655.340210 397.411407,654.087646 398.538147,652.499329 
	C399.485016,651.164490 400.854126,651.592102 402.077698,652.356689 
	C405.285492,654.360962 407.715118,654.069275 408.937012,649.654053 
z"/>
<path fill="#000000" opacity="1.000000" stroke="none" 
	d="
M584.237488,653.554932 
	C584.070007,655.421326 584.268311,657.269897 582.072388,657.141357 
	C580.105591,657.026184 579.950134,655.327087 579.909912,653.811646 
	C579.852844,651.663025 579.913025,649.511475 579.911072,647.361145 
	C579.903748,639.231201 580.257446,638.874878 588.010803,639.039001 
	C589.224365,639.064697 590.473694,639.121643 590.752686,640.544128 
	C590.952148,641.560608 590.384338,642.829224 589.475586,643.020569 
	C583.502380,644.278564 584.121033,648.809204 584.237488,653.554932 
z"/>
<path fill="#000000" opacity="1.000000" stroke="none" 
	d="
M455.191589,641.596619 
	C458.167023,638.896240 461.211823,639.136536 464.479584,640.069031 
	C464.609894,644.532715 459.083588,643.820251 458.496033,647.572632 
	C458.014465,650.647888 459.550201,654.195129 455.922607,657.976746 
	C453.870697,652.122803 454.858643,647.023376 455.191589,641.596619 
z"/>
<path fill="#000000" opacity="1.000000" stroke="none" 
	d="
M378.657288,646.064331 
	C378.866974,641.178406 384.015442,637.849670 387.970703,639.650146 
	C388.494293,639.888489 389.043976,640.501404 389.187195,641.044739 
	C389.416779,641.915955 388.939148,642.861450 388.026154,642.928650 
	C381.495819,643.409485 382.436646,648.257446 382.328156,652.507507 
	C382.306976,653.337463 382.333954,654.170044 382.277557,654.997314 
	C382.195404,656.202454 382.013000,657.408142 380.400330,657.378906 
	C378.853333,657.350891 378.482391,656.193298 378.480103,654.978638 
	C378.474762,652.157532 378.589417,649.336060 378.657288,646.064331 
z"/>
<path fill="#000000" opacity="1.000000" stroke="none" 
	d="
M521.321411,653.654297 
	C524.188477,653.853210 524.471313,655.657837 524.206421,657.571655 
	C523.952454,659.406494 523.358765,661.178711 520.402161,660.840332 
	C520.887207,658.462952 518.494080,656.057495 521.321411,653.654297 
z"/>
</svg>